<svg width="327" height="185" viewBox="0 0 327 185" fill="none" xmlns="http://www.w3.org/2000/svg">
<g opacity="0.06">
<path opacity="0.0526316" d="M303.769 256.255C317.321 246.069 339.999 213.512 322.293 164.777C300.161 103.857 241.495 80.296 211.076 25.9244C188.625 -14.206 154.924 -122.038 192.164 -184.043" stroke="white" stroke-width="0.843993"/>
<path opacity="0.105263" d="M275.358 266.303C289.9 257.589 315.857 227.581 303.343 177.262C287.7 114.362 231.818 84.798 207.249 27.5445C189.115 -14.7128 166.871 -125.477 210.388 -183.249" stroke="white" stroke-width="0.843993"/>
<path opacity="0.157895" d="M246.565 273.893C261.939 266.747 290.89 239.617 283.704 188.265C274.721 124.075 222.236 88.8316 203.786 29.3236C190.169 -14.5977 179.624 -127.08 228.942 -179.988" stroke="white" stroke-width="0.843993"/>
<path opacity="0.210526" d="M217.647 279C233.683 273.5 265.311 249.545 263.533 197.723C261.309 132.946 212.795 92.4093 200.667 31.2988C191.715 -13.8053 192.985 -126.774 247.563 -174.236" stroke="white" stroke-width="0.843993"/>
<path opacity="0.263158" d="M188.864 281.624C205.388 277.831 239.347 257.313 242.994 205.589C247.554 140.934 203.543 95.5485 197.869 33.505C193.681 -12.2877 206.753 -124.505 265.993 -166.002" stroke="white" stroke-width="0.843993"/>
<path opacity="0.315789" d="M160.477 281.793C177.306 279.748 213.224 262.892 222.258 211.833C233.551 148.009 194.526 98.2712 195.368 35.9745C195.989 -10.0052 220.719 -120.241 283.973 -155.319" stroke="white" stroke-width="0.843993"/>
<path opacity="0.368421" d="M132.738 279.562C149.689 279.287 187.172 266.278 201.494 216.443C219.397 154.149 185.784 100.604 193.133 38.737C198.558 -6.92577 234.675 -113.973 301.249 -142.247" stroke="white" stroke-width="0.843993"/>
<path opacity="0.421053" d="M105.896 275.011C122.783 276.51 161.421 267.49 180.873 219.425C205.189 159.343 177.358 102.579 191.134 41.8187C201.301 -3.02695 248.41 -105.712 317.574 -126.872" stroke="white" stroke-width="0.843993"/>
<path opacity="0.473684" d="M80.1885 268.248C96.8265 271.503 136.195 266.571 160.565 220.803C191.028 163.592 169.283 104.23 189.334 45.2423C204.134 1.70511 261.718 -95.4932 332.715 -109.308" stroke="white" stroke-width="0.843993"/>
<path opacity="0.526316" d="M55.8398 259.402C72.0464 264.378 111.715 263.589 140.736 220.618C177.012 166.906 161.59 105.595 187.698 49.0268C206.967 7.27511 274.396 -83.3716 346.449 -89.6894" stroke="white" stroke-width="0.843993"/>
<path opacity="0.578947" d="M33.06 248.627C48.6576 255.27 88.1912 258.632 121.545 218.93C163.237 169.304 154.308 106.717 186.186 53.1875C209.714 13.6787 286.249 -69.4231 358.567 -68.1749" stroke="white" stroke-width="0.843993"/>
<path opacity="0.631579" d="M12.0431 236.098C26.8608 244.336 65.8266 251.811 103.147 215.813C149.798 170.816 147.461 107.639 184.759 57.7353C212.288 20.9023 297.09 -53.7442 368.882 -44.9435" stroke="white" stroke-width="0.843993"/>
<path opacity="0.684211" d="M-7.0378 222.009C6.83777 231.75 44.8087 243.257 85.6877 211.358C136.787 171.484 141.066 108.409 183.376 62.6768C214.605 28.9232 306.745 -36.4502 377.223 -20.1935" stroke="white" stroke-width="0.843993"/>
<path opacity="0.736842" d="M-24.0302 206.57C-11.2489 217.708 25.3112 233.122 69.3007 205.67C124.288 171.356 135.136 109.073 181.995 68.0146C216.581 37.7102 315.05 -17.6739 383.442 5.8608" stroke="white" stroke-width="0.843993"/>
<path opacity="0.789474" d="M-38.8046 190.008C-27.2575 202.421 7.49115 221.571 54.1091 198.868C112.382 170.49 129.681 109.683 180.575 73.7468C218.139 47.2235 321.858 2.43561 387.416 32.9903" stroke="white" stroke-width="0.843993"/>
<path opacity="0.842105" d="M-51.255 172.56C-41.0687 186.112 -8.51215 208.789 40.2235 191.084C101.143 168.952 124.704 110.286 179.076 79.867C219.206 57.4155 327.038 23.7145 389.043 60.9545" stroke="white" stroke-width="0.843993"/>
<path opacity="0.894737" d="M-61.3027 154.473C-52.5888 169.016 -22.5811 194.972 27.7384 182.458C90.6377 166.815 120.202 110.934 177.455 86.3646C219.713 68.2309 330.477 45.986 388.249 89.5033" stroke="white" stroke-width="0.843993"/>
<path opacity="0.947368" d="M-68.8928 136.004C-61.7467 151.378 -34.6165 180.329 16.7354 173.143C80.9252 164.16 116.169 111.675 175.677 93.2253C219.598 79.608 332.08 69.0629 384.988 118.381" stroke="white" stroke-width="0.843993"/>
<path d="M-74 117.41C-68.5001 133.447 -44.5447 165.075 7.27699 163.296C72.0541 161.073 112.591 112.559 173.701 100.43C218.805 91.4786 331.774 92.749 379.236 147.327" stroke="white" stroke-width="0.843993"/>
</g>
</svg>
