<svg width="115" height="37" viewBox="0 0 115 37" fill="none" xmlns="http://www.w3.org/2000/svg">
<g clip-path="url(#clip0_2_114)">
<path d="M43.6617 0.593806L28.6062 36.5021H18.7833L11.3754 7.84156C10.925 6.07872 10.5369 5.43203 9.16646 4.68953C6.93354 3.47758 3.24396 2.34227 0 1.63331L0.220417 0.593806H16.0329C17.0662 0.59277 18.0659 0.961053 18.8514 1.63218C19.637 2.3033 20.1566 3.23305 20.3167 4.25361L24.2315 25.034L33.901 0.593806H43.6617ZM82.1531 24.7801C82.1915 15.3001 69.0431 14.7779 69.1342 10.5433C69.1629 9.25471 70.3896 7.88468 73.0729 7.53498C76.2176 7.23641 79.3846 7.7925 82.2394 9.14453L83.8685 1.52792C81.0892 0.483365 78.1457 -0.056834 75.1765 -0.0672607C65.9908 -0.0672607 59.5269 4.81887 59.4694 11.8079C59.4119 16.9767 64.0837 19.8557 67.6056 21.5802C71.2281 23.3383 72.4452 24.4688 72.426 26.04C72.4021 28.4543 69.5415 29.513 66.8677 29.5561C62.1958 29.6279 59.4885 28.2962 57.3227 27.2903L55.6408 35.156C57.8115 36.1524 61.8173 37.0242 65.9717 37.0625C75.7323 37.0625 82.1196 32.2435 82.1531 24.7801ZM106.404 36.5021H115L107.501 0.593806H99.566C98.7182 0.585951 97.8876 0.832932 97.1818 1.30272C96.4761 1.7725 95.9278 2.44343 95.6081 3.22848L81.6692 36.5021H91.425L93.3656 31.1369H105.287L106.404 36.5021ZM96.0394 23.779L100.927 10.2942L103.744 23.779H96.0394ZM56.9394 0.593806L49.2583 36.5021H39.9625L47.6531 0.593806H56.9394Z" fill="white"/>
</g>
<defs>
<clipPath id="clip0_2_114">
<rect width="115" height="36" fill="white" transform="translate(0 0.5)"/>
</clipPath>
</defs>
</svg>
