<svg width="124" height="33" viewBox="0 0 124 33" fill="none" xmlns="http://www.w3.org/2000/svg">
<g clip-path="url(#clip0_2_116)">
<path fill-rule="evenodd" clip-rule="evenodd" d="M70.8746 0.530884C70.8585 3.70377 70.8423 6.87544 70.8287 10.0471C70.825 10.745 70.8374 10.7609 71.4648 10.4663C73.2355 9.63277 75.1166 9.43477 77.0225 9.65966C78.973 9.88944 80.5788 10.8599 81.8535 12.3241C83.2771 13.9594 84.0793 15.8686 84.336 18.0038C84.496 19.3421 84.5443 20.6878 84.3844 22.0249C83.9715 25.4777 82.6471 28.4538 79.6377 30.4973C78.0889 31.5484 76.3603 32.1424 74.4991 32.3771C74.4185 32.3881 74.292 32.3404 74.2833 32.4932C73.8295 32.4932 73.3744 32.4932 72.9181 32.4932C72.8983 32.4443 72.8772 32.4517 72.8573 32.4932C71.7612 32.4932 70.665 32.4932 69.5713 32.4932C69.5689 32.3331 69.4362 32.3906 69.3605 32.382C67.7237 32.1791 66.1006 31.898 64.4849 31.5692C64.2207 31.5142 64.2331 31.3712 64.2356 31.1805C64.3137 26.4567 64.3757 21.7328 64.3832 17.0077C64.3881 14.0254 64.3633 11.042 64.2852 8.061C64.2592 7.049 64.279 6.02966 63.938 5.04211C63.6503 4.20366 63.1395 3.661 62.2293 3.53022C62.0867 3.50822 61.9478 3.46788 61.8077 3.43488C61.2819 3.30655 61.1009 2.968 61.2596 2.44611C61.3067 2.29089 61.4332 2.27989 61.5461 2.25789C62.5963 2.04766 63.6454 1.83744 64.6981 1.64066C66.4279 1.31555 68.1615 1.00389 69.8913 0.672663C70.0103 0.649441 70.2037 0.750883 70.2533 0.532105C70.3153 0.532105 70.3786 0.532105 70.4381 0.532105C70.4245 0.558994 70.4307 0.58344 70.4629 0.579774C70.4778 0.578552 70.4889 0.549216 70.5013 0.532105C70.6266 0.530883 70.7506 0.530884 70.8746 0.530884ZM70.8113 21.2757C70.8374 21.2757 70.8622 21.2744 70.887 21.2744C70.887 23.3217 70.8758 25.3689 70.8919 27.4137C70.8994 28.3584 70.9626 29.3057 70.9936 30.2517C71.0011 30.512 71.1251 30.6428 71.3879 30.6587C71.4896 30.6648 71.5925 30.6819 71.6955 30.6929C73.0595 30.8469 74.1941 30.4252 75.0856 29.3888C75.6883 28.6909 76.121 27.8952 76.4546 27.0458C77.6462 24.0086 77.8 20.8626 77.3623 17.6774C77.1911 16.4357 76.8005 15.2367 76.1074 14.166C75.289 12.9034 74.2151 12.0454 72.5796 12.1591C72.0935 12.1921 71.6223 12.2813 71.1536 12.4121C70.918 12.4769 70.8572 12.5844 70.8523 12.813C70.7816 15.6351 70.82 18.456 70.8113 21.2757ZM0.319824 2.60866C1.04894 2.65144 1.77186 2.72966 2.47246 2.946C3.54506 3.28089 4.00138 4.12666 4.28286 5.09955C4.59658 6.18489 4.66974 7.30566 4.71314 8.42277C4.89418 13.1149 4.85698 17.8094 4.77142 22.504C4.74414 24.0183 4.69206 25.5363 4.46886 27.0409C4.38702 27.5933 4.27294 28.1409 4.04354 28.6567C3.66534 29.5073 3.04038 30.0573 2.09798 30.2297C1.6925 30.3042 1.29198 30.4044 0.884024 30.4631C0.676944 30.4912 0.526904 30.6489 0.319824 30.6587C0.319824 30.7393 0.319824 30.8212 0.319824 30.9019C0.327264 30.9166 0.335944 30.93 0.340904 30.9459C0.342144 30.9496 0.327264 30.9581 0.319824 30.9642C0.319824 31.2294 0.319824 31.4947 0.319824 31.7587C0.441344 31.9371 0.629824 31.92 0.810864 31.9212C2.9077 31.931 5.00578 31.9444 7.10386 31.9444C10.1208 31.9444 13.1377 31.9334 16.1546 31.931C16.4212 31.931 16.6085 31.8907 16.632 31.5668C16.6853 30.8518 16.6072 30.5988 16.2489 30.5267C15.8049 30.4387 15.3598 30.3372 14.9097 30.292C13.6176 30.1637 12.8587 29.4389 12.4954 28.2521C12.4148 27.9893 12.3429 27.7241 12.2883 27.4564C12.0601 26.3357 12.0192 25.1953 11.9547 24.0587C11.8345 21.9626 11.8171 19.8652 11.8121 17.7679C11.8121 17.5613 11.8878 17.5112 12.0837 17.5186C13.2295 17.5564 14.3752 17.5907 15.516 17.708C16.2538 17.785 16.8478 18.1052 17.3029 18.6858C17.5583 19.0084 17.7654 19.358 17.9377 19.7296C18.2155 20.3248 18.368 20.9567 18.5168 21.5898C18.5565 21.7572 18.6247 21.8281 18.8033 21.8269C19.0711 21.8257 19.3402 21.855 19.608 21.8574C20.0805 21.8623 20.0284 21.9198 20.0284 21.4627C20.0296 18.214 20.0296 14.9653 20.0296 11.7154C20.0296 11.6543 20.0247 11.592 20.0296 11.5333C20.0433 11.3879 19.9763 11.3329 19.8312 11.3378C19.5522 11.3476 19.272 11.3634 18.9942 11.3476C18.683 11.3256 18.5441 11.4404 18.4759 11.7509C18.2961 12.5661 18.0655 13.3691 17.6042 14.0829C17.0958 14.8688 16.4088 15.4004 15.4391 15.497C14.3591 15.6058 13.2753 15.6241 12.1903 15.6388C11.8977 15.6437 11.8084 15.5752 11.8084 15.2733C11.7997 11.8609 11.8766 8.45089 11.987 5.03967C12.0019 4.60333 12.0564 4.16822 12.0812 3.73188C12.0911 3.56199 12.1631 3.51433 12.3305 3.51555C13.9425 3.52655 15.5545 3.52655 17.1665 3.53633C18.8367 3.54733 20.2702 4.12422 21.4345 5.31711C22.0632 5.95877 22.5357 6.71167 22.9486 7.50122C23.3404 8.25289 23.6331 9.04611 23.9567 9.82588C24.1427 10.2757 24.2419 10.3172 24.7131 10.1974C24.9822 10.1278 25.2451 10.0361 25.5154 9.97377C25.6877 9.93344 25.7448 9.85155 25.7386 9.678C25.6592 6.94022 25.6853 4.2 25.5613 1.46222C25.5501 1.197 25.4695 1.09677 25.1769 1.09677C17.6959 1.09677 10.215 1.08699 2.7341 1.08333C1.92934 1.08333 1.1221 1.05522 0.319824 1.14199C0.319824 1.63088 0.319824 2.11977 0.319824 2.60866ZM31.2578 32.492C31.2417 32.3209 31.1003 32.3881 31.0123 32.3734C28.8039 32.019 26.8955 31.1011 25.3505 29.4829C24.01 28.0786 23.2338 26.3919 22.8072 24.5378C22.1971 21.888 22.1798 19.226 23.054 16.6434C24.3783 12.7311 27.0951 10.2622 31.2529 9.47389C33.4824 9.04977 35.6995 9.18911 37.841 9.964C40.7537 11.0212 42.5889 13.11 43.5909 15.9566C44.3026 17.9793 44.439 20.0632 44.2939 22.1887C44.1588 24.1797 43.5847 26.0252 42.5145 27.7094C40.9149 30.2297 38.5813 31.7073 35.6499 32.3062C35.4887 32.3392 35.3238 32.3539 35.1626 32.3869C35.1093 32.3979 35.0063 32.3734 35.0398 32.492C34.6678 32.492 34.2958 32.492 33.9238 32.492C33.9027 32.4419 33.8817 32.4492 33.8618 32.492C32.9938 32.492 32.1246 32.492 31.2578 32.492ZM37.4491 21.2463C37.4727 20.5106 37.4243 19.7784 37.3847 19.0476C37.3065 17.6029 37.1367 16.1704 36.7138 14.7783C36.3542 13.5928 35.826 12.505 34.8848 11.6458C34.2239 11.0432 33.4551 10.8672 32.5908 11.0347C31.7203 11.2021 31.1586 11.768 30.7383 12.4867C29.8988 13.9216 29.6359 15.519 29.4673 17.1311C29.311 18.6308 29.3222 20.1402 29.3371 21.6472C29.3557 23.4854 29.5379 25.3017 30.0798 27.0702C30.4035 28.1287 30.8139 29.148 31.6063 29.9644C32.7111 31.1011 34.2599 31.1182 35.4031 30.0292C36.2501 29.2213 36.6196 28.1812 36.8911 27.0971C37.3747 25.1746 37.4107 23.208 37.4491 21.2463ZM95.4266 32.492C95.47 32.3514 95.3485 32.3869 95.2902 32.3771C90.4963 31.6658 87.1012 28.1714 86.3523 23.3889C85.8587 20.2294 86.201 17.1323 87.9122 14.3053C89.5614 11.581 91.9955 9.986 95.1563 9.44088C96.7249 9.17077 98.2848 9.19277 99.8236 9.59366C101.913 10.14 103.493 11.3671 104.558 13.2151C105.716 15.2208 106.12 17.411 106.107 19.6953C106.105 19.9312 106.017 19.9752 105.798 19.9752C101.614 19.9874 97.4304 20.0082 93.2479 20.018C92.9714 20.0192 92.8821 20.073 92.8933 20.3651C92.9577 22.0664 93.1723 23.7397 93.977 25.2699C95.1054 27.4088 96.8204 28.7716 99.3264 29.0148C100.667 29.1443 101.985 29.0796 103.252 28.5784C103.802 28.3609 104.291 28.037 104.795 27.74C105.034 27.5994 105.24 27.5176 105.468 27.7877C105.793 28.1714 105.856 28.3682 105.636 28.6738C105.193 29.2837 104.624 29.7713 104.037 30.2419C102.558 31.425 100.848 32.0789 98.9829 32.3783C98.9221 32.3881 98.8043 32.3527 98.8378 32.4908C98.0318 32.4908 97.2258 32.4908 96.4211 32.4908C96.3987 32.4358 96.3801 32.4651 96.3578 32.4908C96.214 32.4908 96.0701 32.4908 95.9238 32.4908C95.904 32.4761 95.8854 32.4639 95.8655 32.4492C95.8631 32.4639 95.8631 32.4761 95.8606 32.4908C95.718 32.492 95.5717 32.492 95.4266 32.492ZM96.1408 18.0844C96.1408 18.0588 96.1408 18.0331 96.1408 18.0074C97.1105 18.0074 98.0802 17.9952 99.0511 18.0136C99.3499 18.0197 99.4256 17.917 99.3909 17.6469C99.3574 17.3743 99.3475 17.1006 99.3326 16.8256C99.2768 15.6767 99.1466 14.5363 98.8316 13.4266C98.6605 12.8277 98.4385 12.2471 98.0517 11.7448C97.4093 10.9076 96.4682 10.7425 95.563 11.3023C95.1711 11.5431 94.8549 11.8646 94.6069 12.2434C93.4761 13.9692 93.0966 15.9101 92.9441 17.9158C92.9292 18.1187 93.0235 18.1468 93.1995 18.1431C94.1791 18.1162 95.1612 18.148 96.1408 18.0844ZM117.004 32.492C117.051 32.3136 117.206 32.393 117.311 32.3747C119.612 31.975 121.654 31.1194 123.066 29.1761C123.63 28.3988 123.991 27.5286 124.198 26.5984C124.214 26.5288 124.209 26.4554 124.276 26.409C124.279 26.4066 124.291 26.4151 124.299 26.4212C124.306 26.4273 124.314 26.4359 124.321 26.4432C124.321 25.5877 124.321 24.7333 124.321 23.8753C124.302 23.8631 124.273 23.8533 124.27 23.8399C124.268 23.8093 124.293 23.802 124.321 23.8154C124.321 23.7531 124.321 23.692 124.321 23.6321C124.222 23.5576 124.224 23.5576 124.196 23.4366C123.999 22.5456 123.608 21.7474 122.993 21.063C122.083 20.0473 120.896 19.4313 119.674 18.8728C118.468 18.3228 117.217 17.8706 116.056 17.2216C115.378 16.8427 114.742 16.4137 114.246 15.8087C113.677 15.1157 113.668 14.3188 113.779 13.4901C113.948 12.2092 115.164 11.1202 116.474 11.1056C118.006 11.0884 119.226 11.7142 120.167 12.8863C120.874 13.7676 121.318 14.7844 121.72 15.8221C122.054 16.6838 122.099 16.6948 122.977 16.3746C123.158 16.3086 123.208 16.2218 123.203 16.0433C123.153 14.2931 123.103 12.5429 123.072 10.7914C123.067 10.5103 122.955 10.3906 122.697 10.2916C121.319 9.76477 119.882 9.52644 118.422 9.36878C116.746 9.18789 115.086 9.22822 113.443 9.63888C110.277 10.4297 107.982 12.9682 107.793 15.8429C107.629 18.3484 108.494 20.3468 110.686 21.7144C111.633 22.3048 112.686 22.6727 113.718 23.0846C114.769 23.505 115.822 23.9218 116.765 24.5585C117.258 24.891 117.682 25.2894 117.918 25.8456C118.639 27.5713 117.603 29.6894 115.755 30.0977C113.803 30.5303 112.124 29.9816 110.806 28.4636C109.907 27.4283 109.318 26.2232 108.805 24.9753C108.521 24.286 108.457 24.2567 107.722 24.4877C107.673 24.5036 107.626 24.5268 107.577 24.5402C107.404 24.5903 107.34 24.6942 107.344 24.8776C107.403 26.8221 107.448 28.7667 107.503 30.71C107.517 31.2172 107.524 31.2246 108.023 31.3981C109.449 31.8943 110.929 32.1547 112.418 32.3759C112.508 32.3893 112.646 32.327 112.665 32.4944C114.11 32.492 115.558 32.492 117.004 32.492ZM70.4406 0.530884C70.4269 0.557773 70.4331 0.582219 70.4654 0.578552C70.4803 0.57733 70.4914 0.547995 70.5038 0.530884C70.4827 0.530884 70.4617 0.530884 70.4406 0.530884ZM124.32 23.8142C124.291 23.7996 124.267 23.8069 124.269 23.8387C124.271 23.8533 124.301 23.8631 124.32 23.8741C124.32 23.8558 124.32 23.8338 124.32 23.8142ZM0.319824 30.9642C0.327264 30.9581 0.342144 30.9496 0.340904 30.9459C0.335944 30.9312 0.326024 30.9166 0.319824 30.9019C0.319824 30.9239 0.319824 30.9434 0.319824 30.9642ZM33.9238 32.492C33.9027 32.4419 33.8817 32.4492 33.8618 32.492C33.8817 32.492 33.9027 32.492 33.9238 32.492ZM72.9206 32.492C72.9007 32.4431 72.8797 32.4504 72.8598 32.492C72.8797 32.492 72.9007 32.492 72.9206 32.492ZM95.9238 32.492C95.904 32.4773 95.8854 32.4651 95.8655 32.4504C95.8631 32.4651 95.8631 32.4773 95.8606 32.492C95.8817 32.492 95.9027 32.492 95.9238 32.492ZM96.4198 32.492C96.3975 32.437 96.3789 32.4663 96.3566 32.492C96.3789 32.492 96.3975 32.492 96.4198 32.492ZM53.9101 13.7737C53.9622 12.4121 54.0131 11.0493 54.0651 9.68777C54.08 9.29911 54.0565 9.27344 53.6845 9.34188C50.7568 9.87477 47.8391 10.4614 44.9251 11.0554C44.2778 11.1862 44.2518 11.2327 44.2791 11.8866C44.2803 11.9073 44.2803 11.9269 44.2803 11.9477C44.284 12.1408 44.3783 12.2373 44.5779 12.2691C44.9028 12.3192 45.2239 12.3999 45.5488 12.4476C46.3871 12.5734 46.8533 13.0831 47.074 13.8531C47.2935 14.6146 47.3357 15.3992 47.3629 16.179C47.4535 18.8251 47.4621 21.4724 47.4026 24.1198C47.3716 25.5437 47.3654 26.9688 47.1943 28.3866C47.0616 29.4829 46.4813 30.1686 45.4323 30.3947C45.1409 30.4582 44.8433 30.4986 44.5519 30.5597C44.4489 30.5804 44.3262 30.5853 44.3262 30.7516C44.3262 31.0156 44.2977 31.2796 44.2939 31.5436C44.2915 31.7733 44.3659 31.9334 44.6548 31.9053C44.8172 31.8894 44.9846 31.9212 45.1495 31.9212C47.9904 31.9286 50.8312 31.9359 53.6721 31.9383C54.9121 31.9396 56.1521 31.9261 57.3908 31.9322C57.6215 31.9334 57.7058 31.865 57.7008 31.6413C57.6946 31.3773 57.7145 31.1121 57.7231 30.8481C57.7281 30.655 57.6525 30.5584 57.4367 30.5426C57.0052 30.5144 56.5749 30.4594 56.1446 30.4093C55.5494 30.3421 54.979 30.2211 54.6107 29.6809C54.3999 29.3729 54.2772 29.0307 54.2015 28.6689C53.9721 27.5774 53.9511 26.4652 53.9077 25.3603C53.7911 22.4294 53.8085 19.4973 53.8891 16.5652C53.9039 16.0299 54.1371 15.6889 54.6083 15.4615C55.6858 14.9384 56.813 14.8223 57.9835 15.0448C58.7598 15.1927 59.4653 15.5349 60.1771 15.8576C60.4325 15.9749 60.5751 15.9492 60.6905 15.6657C61.4047 13.902 62.0954 12.1286 62.7265 10.3343C62.8679 9.93222 62.822 9.82955 62.4426 9.63766C62.3607 9.59611 62.2764 9.55455 62.1884 9.52522C60.8566 9.11577 59.5273 9.08766 58.2179 9.60222C56.6183 10.2304 55.4639 11.361 54.5773 12.7861C54.3702 13.1198 54.1755 13.462 53.9746 13.8006C53.9511 13.7896 53.93 13.781 53.9101 13.7737Z" fill="white"/>
</g>
<defs>
<clipPath id="clip0_2_116">
<rect width="124" height="33" fill="white"/>
</clipPath>
</defs>
</svg>
