<svg width="140" height="33" viewBox="0 0 140 33" fill="none" xmlns="http://www.w3.org/2000/svg">
<g clip-path="url(#clip0_2_129)">
<path d="M10.2615 16.5393C10.2615 13.1392 13.0171 10.382 16.4188 10.382C19.8193 10.382 22.576 13.138 22.576 16.5393C22.576 19.9417 19.8205 22.6978 16.4199 22.6978C13.0182 22.6978 10.2615 19.9405 10.2615 16.5404" fill="white"/>
<path d="M16.4175 0.120641C7.35104 0.120641 0.0012207 7.47174 0.0012207 16.5405C0.0012207 23.3477 4.11116 29.1589 10.0785 31.6877C10.4981 31.8648 10.9517 31.9462 11.4064 31.9259C11.8611 31.9057 12.3057 31.7844 12.7081 31.5707C13.1105 31.3571 13.4606 31.0564 13.7332 30.6904C14.0058 30.3245 14.1941 29.9023 14.2846 29.4544C14.424 28.7562 14.3179 28.0311 13.9843 27.4027C13.6507 26.7742 13.1104 26.2815 12.4553 26.0084V26.0072C8.75697 24.4567 6.15734 20.8036 6.15734 16.5405C6.15734 10.8718 10.7504 6.27677 16.4187 6.27677C22.087 6.27677 26.6812 10.8718 26.6812 16.5405C26.6812 20.8024 24.0816 24.4567 20.3821 26.0061V26.0084C19.7269 26.2817 19.1865 26.7748 18.8531 27.4035C18.5197 28.0322 18.4139 28.7576 18.5538 29.4559C18.6937 30.1542 19.0707 30.7821 19.6203 31.2325C20.1699 31.6829 20.8581 31.9279 21.5676 31.9256C21.9755 31.9231 22.3791 31.8419 22.7566 31.6866C28.7239 29.1577 32.835 23.3454 32.835 16.5393C32.835 7.46938 25.484 0.118286 16.4175 0.118286" fill="white"/>
<path d="M80.4694 14.718C80.4694 11.7477 78.4326 9.53906 75.2572 9.53906C72.0795 9.53906 70.0438 11.7489 70.0438 14.7192C70.0438 17.6872 72.0806 19.8994 75.2572 19.8994C78.4326 19.8994 80.4694 17.6884 80.4694 14.7192M64.9337 14.7192C64.9337 9.26357 69.2488 5.04999 75.2572 5.04999C81.2984 5.04999 85.5795 9.26357 85.5795 14.7192C85.5795 20.1748 81.2984 24.3872 75.2572 24.3872C69.25 24.3872 64.9337 20.1748 64.9337 14.7192ZM83.8253 28.3383H86.5868C88.0713 28.3383 88.5896 27.7849 88.5896 26.4734V5.05588H93.6986V26.5417C93.6986 31.0661 91.8693 32.9992 87.0019 32.9992H83.8242V28.3371L83.8253 28.3383ZM56.7431 15.7176C56.7431 17.978 54.4495 19.784 51.5309 19.784C48.2313 19.784 46.1804 17.8379 46.1804 14.6062C46.1804 11.6182 48.3696 9.56732 51.7397 9.56732C54.4155 9.56732 56.7431 11.4439 56.7431 13.5631V15.7176ZM56.9518 5.04411V7.20329H56.8815C55.5611 5.81407 53.3731 5.04882 50.7676 5.04882C45.1731 5.04882 41.0386 9.21883 41.0386 14.605C41.0386 20.2007 45.2775 24.3013 50.9411 24.3013C53.4763 24.3013 55.5963 23.5007 56.8827 22.0762H56.953V23.9387C56.953 26.4405 54.7978 28.2818 51.9484 28.2818C49.0755 28.2818 47.4034 27.4718 45.9517 26.0837L42.6251 29.286C44.8542 31.6524 48.2148 32.9981 52.0527 32.9981C57.8911 32.9981 61.8849 29.0812 61.8849 23.8692V5.04411H56.9518ZM106.755 9.19293C109.482 9.19293 111.381 10.6092 111.623 12.7508H101.818C102.094 10.6092 103.994 9.19293 106.755 9.19293ZM107.283 20.2431C104.22 20.2431 101.813 18.2629 101.75 16.3415H116.595V14.8923C116.595 9.40132 112.797 5.04999 106.651 5.04999C100.851 5.04999 96.7086 9.12583 96.7086 14.7545C96.7086 20.5551 101.079 24.3872 107.502 24.3872C111.438 24.3872 114.26 22.5 115.733 20.6929L112.27 18.2653C110.73 19.7027 109.333 20.2431 107.284 20.2431M119.605 0.071167H124.537L124.564 12.7508H124.63L132.888 5.00643H139.499L130.941 13.1075L139.465 24.3719H133.562L127.708 16.2309H127.642L124.537 19.173V24.3861H119.605V0.071167Z" fill="white"/>
</g>
<defs>
<clipPath id="clip0_2_129">
<rect width="139.535" height="33" fill="white"/>
</clipPath>
</defs>
</svg>
