<svg width="154" height="41" viewBox="0 0 154 41" fill="none" xmlns="http://www.w3.org/2000/svg">
<path d="M57.391 8.38513H48.8974C48.3162 8.38513 47.8219 8.80756 47.7312 9.38156L44.296 31.1699C44.2277 31.5998 44.5606 31.9875 44.9965 31.9875H49.0514C49.6326 31.9875 50.1269 31.565 50.2176 30.9898L51.1441 25.1131C51.2335 24.5379 51.729 24.1155 52.309 24.1155H54.9978C60.5927 24.1155 63.8217 21.407 64.665 16.0397C65.045 13.6915 64.6812 11.8465 63.582 10.5544C62.3749 9.13556 60.2338 8.38513 57.391 8.38513ZM58.3709 16.3429C57.9064 19.3918 55.5778 19.3918 53.3261 19.3918H52.0445L52.9436 13.6977C52.997 13.3536 53.2951 13.1001 53.6428 13.1001H54.2303C55.7641 13.1001 57.2109 13.1001 57.9586 13.9748C58.4044 14.4966 58.541 15.2719 58.3709 16.3429Z" fill="#DEDEDE"/>
<path d="M82.78 16.2447H78.7127C78.3662 16.2447 78.0669 16.4982 78.0135 16.8423L77.8334 17.9804L77.549 17.5679C76.6685 16.2895 74.705 15.8621 72.7452 15.8621C68.2506 15.8621 64.4118 19.2675 63.6642 24.0447C63.2754 26.4276 63.8281 28.7062 65.1793 30.2953C66.4188 31.7564 68.1922 32.3652 70.3023 32.3652C73.9238 32.3652 75.932 30.0356 75.932 30.0356L75.7507 31.1662C75.6824 31.5986 76.0152 31.9862 76.4486 31.9862H80.1123C80.6948 31.9862 81.1866 31.5638 81.2785 30.9886L83.4767 17.0622C83.5463 16.6336 83.2147 16.2447 82.78 16.2447ZM77.1106 24.1639C76.7181 26.4885 74.8739 28.049 72.5216 28.049C71.3406 28.049 70.3967 27.6701 69.7906 26.9519C69.1895 26.2388 68.961 25.2237 69.1523 24.0931C69.5186 21.7884 71.394 20.177 73.7102 20.177C74.8652 20.177 75.8041 20.5609 76.4226 21.2852C77.0423 22.017 77.2882 23.0383 77.1106 24.1639Z" fill="#DEDEDE"/>
<path d="M104.442 16.2448H100.355C99.9647 16.2448 99.5984 16.4386 99.3773 16.7628L93.7402 25.0697L91.3507 17.0871C91.2004 16.5877 90.7396 16.2448 90.218 16.2448H86.2016C85.7135 16.2448 85.3745 16.7218 85.5297 17.1815L90.0317 30.3984L85.7992 36.3757C85.4664 36.8466 85.8017 37.4939 86.3767 37.4939H90.459C90.8465 37.4939 91.2091 37.3051 91.4289 36.987L105.023 17.3567C105.349 16.8871 105.014 16.2448 104.442 16.2448Z" fill="#DEDEDE"/>
<path d="M117.974 8.38513H109.479C108.899 8.38513 108.405 8.80756 108.314 9.38156L104.879 31.1699C104.811 31.5998 105.144 31.9875 105.577 31.9875H109.936C110.341 31.9875 110.688 31.6918 110.751 31.2892L111.726 25.1131C111.815 24.5379 112.311 24.1155 112.891 24.1155H115.578C121.174 24.1155 124.402 21.407 125.247 16.0397C125.628 13.6915 125.262 11.8465 124.163 10.5544C122.957 9.13556 120.817 8.38513 117.974 8.38513ZM118.954 16.3429C118.491 19.3918 116.162 19.3918 113.909 19.3918H112.629L113.529 13.6977C113.583 13.3536 113.878 13.1001 114.227 13.1001H114.815C116.347 13.1001 117.795 13.1001 118.543 13.9748C118.989 14.4966 119.124 15.2719 118.954 16.3429Z" fill="white"/>
<path d="M143.362 16.2447H139.297C138.948 16.2447 138.651 16.4982 138.599 16.8423L138.419 17.9804L138.133 17.5679C137.253 16.2895 135.29 15.8621 133.331 15.8621C128.836 15.8621 124.998 19.2675 124.251 24.0447C123.863 26.4276 124.413 28.7062 125.765 30.2953C127.007 31.7564 128.778 32.3652 130.888 32.3652C134.509 32.3652 136.517 30.0356 136.517 30.0356L136.336 31.1662C136.268 31.5986 136.601 31.9862 137.036 31.9862H140.699C141.279 31.9862 141.773 31.5638 141.864 30.9886L144.063 17.0622C144.13 16.6336 143.798 16.2447 143.362 16.2447ZM137.692 24.1639C137.302 26.4885 135.455 28.049 133.103 28.049C131.925 28.049 130.978 27.6701 130.372 26.9519C129.771 26.2388 129.545 25.2237 129.734 24.0931C130.103 21.7884 131.976 20.177 134.292 20.177C135.447 20.177 136.386 20.5609 137.004 21.2852C137.626 22.017 137.872 23.0383 137.692 24.1639Z" fill="white"/>
<path d="M148.157 8.98276L144.671 31.17C144.602 31.5999 144.935 31.9875 145.369 31.9875H148.873C149.456 31.9875 149.95 31.5651 150.039 30.9898L153.477 9.20267C153.545 8.77279 153.213 8.38391 152.779 8.38391H148.855C148.508 8.38515 148.21 8.63861 148.157 8.98276Z" fill="white"/>
<path d="M9.02408 36.2216L9.67361 32.0943L8.22676 32.0607H1.31787L6.11919 1.60519C6.1341 1.51325 6.18253 1.42752 6.25332 1.36664C6.32411 1.30576 6.41477 1.27222 6.50916 1.27222H18.1585C22.0259 1.27222 24.6948 2.07731 26.0883 3.66637C26.7415 4.41182 27.1576 5.19082 27.3588 6.0481C27.5699 6.94761 27.5736 8.02231 27.3675 9.33307L27.3526 9.42873V10.2686L28.0058 10.6389C28.556 10.9308 28.9932 11.265 29.3285 11.6477C29.8874 12.2851 30.2488 13.0951 30.4015 14.0555C30.5592 15.0432 30.5071 16.2186 30.2488 17.5492C29.9507 19.0799 29.4688 20.413 28.818 21.5039C28.2194 22.509 27.4569 23.3426 26.5515 23.9887C25.6871 24.6025 24.66 25.0684 23.4988 25.3666C22.3736 25.6598 21.0907 25.8076 19.6836 25.8076H18.777C18.1287 25.8076 17.4991 26.0412 17.0048 26.4599C16.5092 26.8873 16.1814 27.4712 16.0808 28.1098L16.0125 28.4813L14.8649 35.7557L14.8127 36.0228C14.7991 36.1073 14.7755 36.1495 14.7407 36.1781C14.7097 36.2042 14.665 36.2216 14.6215 36.2216H9.02408Z" fill="#DEDEDE"/>
<path d="M28.6242 9.52563C28.5894 9.74803 28.5496 9.97539 28.5049 10.209C26.9687 18.0996 21.7128 20.8255 15.0001 20.8255H11.5823C10.7614 20.8255 10.0696 21.4218 9.94173 22.2319L8.19184 33.3342L7.69631 36.4813C7.6131 37.013 8.02294 37.4926 8.55946 37.4926H14.6213C15.3392 37.4926 15.949 36.9708 16.062 36.2626L16.1216 35.9545L17.2629 28.7087L17.3362 28.3111C17.448 27.6004 18.059 27.0786 18.7769 27.0786H19.6835C25.5566 27.0786 30.1542 24.6932 31.498 17.7902C32.0594 14.9066 31.7687 12.4988 30.2834 10.8053C29.8338 10.2947 29.2762 9.87103 28.6242 9.52563Z" fill="white"/>
<path d="M27.0173 8.88452C26.7825 8.81619 26.5404 8.75407 26.292 8.69816C26.0423 8.64349 25.7865 8.59504 25.5232 8.55279C24.6017 8.4037 23.592 8.33289 22.5103 8.33289H13.3796C13.1548 8.33289 12.9412 8.38383 12.7499 8.47576C12.3289 8.67828 12.0159 9.0771 11.9402 9.56537L9.99778 21.8728L9.94189 22.2319C10.0698 21.4218 10.7616 20.8255 11.5825 20.8255H15.0003C21.713 20.8255 26.9688 18.0983 28.5051 10.2089C28.5511 9.97537 28.5896 9.74801 28.6243 9.52561C28.2356 9.31937 27.8146 9.14295 27.3613 8.99261C27.2495 8.95534 27.134 8.91931 27.0173 8.88452Z" fill="#C7C7C7"/>
<path d="M11.94 9.56542C12.0157 9.07715 12.3287 8.67833 12.7497 8.47706C12.9422 8.38512 13.1546 8.33418 13.3794 8.33418H22.5101C23.5918 8.33418 24.6015 8.405 25.523 8.55409C25.7863 8.59633 26.0421 8.64479 26.2918 8.69945C26.5401 8.75536 26.7823 8.81748 27.017 8.88582C27.1338 8.92061 27.2493 8.95664 27.3623 8.99267C27.8156 9.143 28.2366 9.32067 28.6254 9.52567C29.0824 6.6097 28.6216 4.6243 27.0456 2.82652C25.3081 0.847333 22.1723 0 18.1596 0H6.51021C5.69054 0 4.99132 0.596364 4.86465 1.40767L0.0124055 32.1763C-0.0832236 32.7851 0.386228 33.3342 0.999744 33.3342H8.19179L9.99757 21.8729L11.94 9.56542Z" fill="#DEDEDE"/>
</svg>
