<svg width="148" height="33" viewBox="0 0 148 33" fill="none" xmlns="http://www.w3.org/2000/svg">
<path d="M145.426 14.3995C145.426 6.10803 139.65 0.276367 131.552 0.276367C121.243 0.276367 114.333 7.76632 114.333 18.4623C114.333 26.809 120.165 32.5854 128.401 32.5854C135.891 32.5854 141.474 28.9648 143.768 23.1884H135.449C134.343 24.9849 131.994 26.1181 129.12 26.1181C124.697 26.1181 121.934 23.1884 121.685 19.0427H144.956C145.26 17.4673 145.426 16.1131 145.426 14.3995ZM122.321 13.4321C123.067 9.61808 126.77 6.57788 131.248 6.57788C135.117 6.57788 138.047 9.39697 138.047 13.4321H122.321ZM91.9738 31.8392L93.4663 23.8794C98.0266 24.7914 98.7175 22.2211 99.906 16.0301L100.486 12.9623C102.145 4.31154 105.489 -1.4782e-05 115.052 1.16079L113.559 9.12059C108.999 8.20853 108.197 11.6633 107.175 17.0251L106.594 20.093C104.936 28.8543 101.481 33 91.9738 31.8392ZM80.808 31.8668L86.4462 1.0226H93.8809L88.2703 31.8668H80.808ZM38.2175 1.0226H45.4311L47.7803 23.3266L57.2326 1.0226H64.3909L66.906 23.5477L76.0266 1.0226H83.2125L70.1396 31.8668H61.9587L59.3055 10.6407L50.2678 31.8668H42.3633L38.2175 1.0226Z" fill="white"/>
<path d="M11.2702 9.20349L2.70239 17.3844H17.2677L18.7878 13.8191H11.4084L16.024 9.20349L13.3431 4.58791H25.8632L14.3104 31.8668H18.6496L31.7225 1.02258H6.46119L11.2702 9.20349Z" fill="white"/>
</svg>
